<?xml version="1.0" encoding="UTF-8"?>
<svg width="32" height="32" viewBox="0 0 32 32" fill="none" xmlns="http://www.w3.org/2000/svg">
  <!-- 外圆 -->
  <circle cx="16" cy="16" r="15" fill="#1C1917"/>
  
  <!-- 装饰圆环 -->
  <circle cx="16" cy="16" r="14" stroke="white" stroke-width="0.2" stroke-opacity="0.1"/>
  <circle cx="16" cy="16" r="13" stroke="white" stroke-width="0.1" stroke-opacity="0.1"/>
  
  <!-- 八卦装饰 -->
  <g opacity="0.08">
    <path d="M16 1 L16 31" stroke="white" stroke-width="0.1"/>
    <path d="M1 16 L31 16" stroke="white" stroke-width="0.1"/>
    <path d="M5 5 L27 27" stroke="white" stroke-width="0.1"/>
    <path d="M27 5 L5 27" stroke="white" stroke-width="0.1"/>
  </g>

  <!-- 主体爻字 -->
  <g transform="translate(16 16) rotate(-10) translate(-16 -16) scale(0.0625)">
    <!-- 左侧装饰 -->
    <path d="M150 140 Q130 256 150 372" stroke="white" stroke-width="8" stroke-linecap="round" fill="none" opacity="0.3"/>
    
    <!-- 右侧装饰 -->
    <path d="M362 140 Q382 256 362 372" stroke="white" stroke-width="8" stroke-linecap="round" fill="none" opacity="0.3"/>
    
    <!-- 中心爻字 -->
    <g>
      <!-- 上横 -->
      <path d="M156 176 H356" stroke="white" stroke-width="32" stroke-linecap="round"/>
      <!-- 中横 -->
      <path d="M156 256 H356" stroke="white" stroke-width="32" stroke-linecap="round"/>
      <!-- 下横 -->
      <path d="M156 336 H356" stroke="white" stroke-width="32" stroke-linecap="round"/>
      
      <!-- 左撇 -->
      <path d="M186 146 L246 366" stroke="white" stroke-width="32" stroke-linecap="round"/>
      <!-- 右捺 -->
      <path d="M326 146 L266 366" stroke="white" stroke-width="32" stroke-linecap="round"/>
    </g>
  </g>
</svg> 